<svg xmlns="http://www.w3.org/2000/svg" xmlns:xlink="http://www.w3.org/1999/xlink" width="512" zoomAndPan="magnify" viewBox="0 0 384 383.999986" height="512" preserveAspectRatio="xMidYMid meet" version="1.0"><defs><clipPath id="668ea9a5f1"><path d="M 130.847656 178.710938 L 205.714844 178.710938 L 205.714844 293.9375 L 130.847656 293.9375 Z M 130.847656 178.710938 " clip-rule="nonzero"/></clipPath><clipPath id="3b53c438a2"><path d="M 130.847656 178.738281 L 205.714844 178.738281 L 205.714844 293.9375 Z M 130.847656 178.738281 " clip-rule="nonzero"/></clipPath><clipPath id="3edbe7ef64"><path d="M 0.847656 0.710938 L 75.714844 0.710938 L 75.714844 115.9375 L 0.847656 115.9375 Z M 0.847656 0.710938 " clip-rule="nonzero"/></clipPath><clipPath id="4ffebf7475"><path d="M 0.847656 0.738281 L 75.714844 0.738281 L 75.714844 115.9375 Z M 0.847656 0.738281 " clip-rule="nonzero"/></clipPath><clipPath id="ab5f460bfe"><rect x="0" width="76" y="0" height="116"/></clipPath><clipPath id="4bd22c9dbf"><path d="M 168.292969 63.542969 L 243.160156 63.542969 L 243.160156 178.769531 L 168.292969 178.769531 Z M 168.292969 63.542969 " clip-rule="nonzero"/></clipPath><clipPath id="e8366833d3"><path d="M 243.160156 178.742188 L 168.292969 178.742188 L 168.292969 63.542969 Z M 243.160156 178.742188 " clip-rule="nonzero"/></clipPath><clipPath id="15181276c6"><path d="M 0.292969 0.542969 L 75.160156 0.542969 L 75.160156 115.769531 L 0.292969 115.769531 Z M 0.292969 0.542969 " clip-rule="nonzero"/></clipPath><clipPath id="4243a8e75f"><path d="M 75.160156 115.742188 L 0.292969 115.742188 L 0.292969 0.542969 Z M 75.160156 115.742188 " clip-rule="nonzero"/></clipPath><clipPath id="b1d1e45d50"><rect x="0" width="76" y="0" height="116"/></clipPath><clipPath id="87972590e5"><path d="M 168.285156 145.691406 L 205.722656 145.691406 L 205.722656 215.707031 L 168.285156 215.707031 Z M 168.285156 145.691406 " clip-rule="nonzero"/></clipPath><clipPath id="63ac841829"><path d="M 0.285156 0.691406 L 37.722656 0.691406 L 37.722656 70.707031 L 0.285156 70.707031 Z M 0.285156 0.691406 " clip-rule="nonzero"/></clipPath><clipPath id="cf38de4d08"><rect x="0" width="38" y="0" height="71"/></clipPath></defs><rect x="-38.4" width="460.8" fill="#ffffff" y="-38.399999" height="460.799983" fill-opacity="1"/><rect x="-38.4" width="460.8" fill="#000000" y="-38.399999" height="460.799983" fill-opacity="1"/><g clip-path="url(#668ea9a5f1)"><g clip-path="url(#3b53c438a2)"><g transform="matrix(1, 0, 0, 1, 130, 178)"><g clip-path="url(#ab5f460bfe)"><g clip-path="url(#3edbe7ef64)"><g clip-path="url(#4ffebf7475)"><path fill="#52be02" d="M 75.714844 115.9375 L 0.847656 115.9375 L 0.847656 0.710938 L 75.714844 0.710938 Z M 75.714844 115.9375 " fill-opacity="1" fill-rule="nonzero"/></g></g></g></g></g></g><g clip-path="url(#4bd22c9dbf)"><g clip-path="url(#e8366833d3)"><g transform="matrix(1, 0, 0, 1, 168, 63)"><g clip-path="url(#b1d1e45d50)"><g clip-path="url(#15181276c6)"><g clip-path="url(#4243a8e75f)"><path fill="#52be02" d="M 0.292969 0.542969 L 75.160156 0.542969 L 75.160156 115.769531 L 0.292969 115.769531 Z M 0.292969 0.542969 " fill-opacity="1" fill-rule="nonzero"/></g></g></g></g></g></g><g clip-path="url(#87972590e5)"><g transform="matrix(1, 0, 0, 1, 168, 145)"><g clip-path="url(#cf38de4d08)"><g clip-path="url(#63ac841829)"><path fill="#52be02" d="M 37.722656 70.707031 L 0.285156 70.707031 L 0.285156 0.664062 L 37.722656 0.664062 Z M 37.722656 70.707031 " fill-opacity="1" fill-rule="nonzero"/></g></g></g></g></svg>