<svg xmlns="http://www.w3.org/2000/svg" xmlns:xlink="http://www.w3.org/1999/xlink" width="512" zoomAndPan="magnify" viewBox="0 0 384 383.999986" height="512" preserveAspectRatio="xMidYMid meet" version="1.0"><defs><clipPath id="93031c4546"><path d="M 18 0 L 366 0 C 370.773438 0 375.351562 1.894531 378.726562 5.273438 C 382.105469 8.648438 384 13.226562 384 18 L 384 366 C 384 375.941406 375.941406 384 366 384 L 18 384 C 13.226562 384 8.648438 382.105469 5.273438 378.726562 C 1.894531 375.351562 0 370.773438 0 366 L 0 18 C 0 8.058594 8.058594 0 18 0 Z M 18 0 " clip-rule="nonzero"/></clipPath><clipPath id="d8e82fb1a3"><path d="M 0 0 L 384 0 L 384 384 L 0 384 Z M 0 0 " clip-rule="nonzero"/></clipPath><clipPath id="2982e46c5a"><path d="M 18 0 L 366 0 C 370.773438 0 375.351562 1.894531 378.726562 5.273438 C 382.105469 8.648438 384 13.226562 384 18 L 384 366 C 384 375.941406 375.941406 384 366 384 L 18 384 C 13.226562 384 8.648438 382.105469 5.273438 378.726562 C 1.894531 375.351562 0 370.773438 0 366 L 0 18 C 0 8.058594 8.058594 0 18 0 Z M 18 0 " clip-rule="nonzero"/></clipPath><clipPath id="99316a2393"><rect x="0" width="384" y="0" height="384"/></clipPath><clipPath id="74898951c4"><path d="M 11.753906 9.925781 L 372.503906 9.925781 L 372.503906 374.425781 L 11.753906 374.425781 Z M 11.753906 9.925781 " clip-rule="nonzero"/></clipPath><clipPath id="a940935834"><path d="M 63.503906 9.925781 L 320.488281 9.925781 C 334.210938 9.925781 347.375 15.378906 357.078125 25.082031 C 366.78125 34.789062 372.234375 47.949219 372.234375 61.675781 L 372.234375 322.316406 C 372.234375 350.894531 349.066406 374.0625 320.488281 374.0625 L 63.503906 374.0625 C 34.925781 374.0625 11.753906 350.894531 11.753906 322.316406 L 11.753906 61.675781 C 11.753906 33.09375 34.925781 9.925781 63.503906 9.925781 Z M 63.503906 9.925781 " clip-rule="nonzero"/></clipPath><clipPath id="2302043a05"><path d="M 113.800781 48.183594 L 270.550781 48.183594 L 270.550781 336 L 113.800781 336 Z M 113.800781 48.183594 " clip-rule="nonzero"/></clipPath></defs><rect x="-38.4" width="460.8" fill="#ffffff" y="-38.399999" height="460.799983" fill-opacity="1"/><rect x="-38.4" width="460.8" fill="#ffffff" y="-38.399999" height="460.799983" fill-opacity="1"/><g clip-path="url(#93031c4546)"><g><g clip-path="url(#99316a2393)"><g clip-path="url(#d8e82fb1a3)"><g clip-path="url(#2982e46c5a)"><rect x="-84.48" width="552.96" fill="#1d1d1f" height="552.959979" y="-84.479997" fill-opacity="1"/></g></g></g></g></g><g clip-path="url(#74898951c4)"><g clip-path="url(#a940935834)"><path stroke-linecap="butt" transform="matrix(0.75, 0, 0, 0.75, 11.755108, 9.92653)" fill="none" stroke-linejoin="miter" d="M 68.998407 -0.000998672 L 411.64429 -0.000998672 C 429.941167 -0.000998672 447.493253 7.269836 460.430755 20.207338 C 473.368257 33.150048 480.639091 50.696925 480.639091 68.999011 L 480.639091 416.519894 C 480.639091 454.624066 449.748462 485.514696 411.64429 485.514696 L 68.998407 485.514696 C 30.894235 485.514696 -0.00160248 454.624066 -0.00160248 416.519894 L -0.00160248 68.999011 C -0.00160248 30.889631 30.894235 -0.000998672 68.998407 -0.000998672 Z M 68.998407 -0.000998672 " stroke="#52be02" stroke-width="26" stroke-opacity="1" stroke-miterlimit="4"/></g></g><g clip-path="url(#2302043a05)"><path fill="#ffffff" d="M 270.199219 48.234375 L 135.230469 197.605469 L 176.464844 216.632812 L 113.800781 335.761719 L 242.175781 191.929688 L 204.476562 171.085938 Z M 270.199219 48.234375 " fill-opacity="1" fill-rule="nonzero"/></g></svg>